<?xml version="1.0" encoding="UTF-8" standalone="no"?>
<!-- Created with Inkscape (http://www.inkscape.org/) -->

<svg
   xmlns:dc="http://purl.org/dc/elements/1.1/"
   xmlns:cc="http://creativecommons.org/ns#"
   xmlns:rdf="http://www.w3.org/1999/02/22-rdf-syntax-ns#"
   xmlns:svg="http://www.w3.org/2000/svg"
   xmlns="http://www.w3.org/2000/svg"
   xmlns:sodipodi="http://sodipodi.sourceforge.net/DTD/sodipodi-0.dtd"
   xmlns:inkscape="http://www.inkscape.org/namespaces/inkscape"
   width="151.44669mm"
   height="176.86504mm"
   viewBox="0 0 151.44668 176.86503"
   version="1.1"
   id="svg8"
   inkscape:version="0.92.4 (unknown)"
   sodipodi:docname="enemy-papa-animatie3.svg">
  <defs
     id="defs2" />
  <sodipodi:namedview
     id="base"
     pagecolor="#ffffff"
     bordercolor="#666666"
     borderopacity="1.0"
     inkscape:pageopacity="0.0"
     inkscape:pageshadow="2"
     inkscape:zoom="0.35"
     inkscape:cx="1154.5372"
     inkscape:cy="808.39651"
     inkscape:document-units="mm"
     inkscape:current-layer="layer1"
     showgrid="false"
     inkscape:window-width="1245"
     inkscape:window-height="855"
     inkscape:window-x="48"
     inkscape:window-y="69"
     inkscape:window-maximized="0"
     fit-margin-top="0"
     fit-margin-left="0"
     fit-margin-right="0"
     fit-margin-bottom="0">
    <inkscape:grid
       type="xygrid"
       id="grid3715"
       originx="-28.469938"
       originy="75.819624" />
  </sodipodi:namedview>
  <metadata
     id="metadata5">
    <rdf:RDF>
      <cc:Work
         rdf:about="">
        <dc:format>image/svg+xml</dc:format>
        <dc:type
           rdf:resource="http://purl.org/dc/dcmitype/StillImage" />
        <dc:title></dc:title>
      </cc:Work>
    </rdf:RDF>
  </metadata>
  <g
     inkscape:label="Laag 1"
     inkscape:groupmode="layer"
     id="layer1"
     transform="translate(-28.469977,-195.95457)">
    <ellipse
       style="fill:#ff8080;stroke-width:0.25935256"
       id="path3741"
       cx="92.107208"
       cy="134.17555"
       rx="59.601246"
       ry="46.349388" />
    <ellipse
       id="path3713"
       cx="14.140346"
       cy="109.87547"
       rx="20.923323"
       ry="29.998476"
       style="stroke-width:0.31828198"
       transform="matrix(0.89123477,-0.45354227,0.45443894,0.89077789,0,0)" />
    <ellipse
       style="fill:#ffffff;stroke-width:0.46766108"
       id="path3721"
       cx="15.091912"
       cy="117.50328"
       rx="14.1005"
       ry="17.726372"
       transform="matrix(0.89123477,-0.45354227,0.45443894,0.89077789,0,0)" />
    <ellipse
       id="path3713-3"
       cx="-148.74574"
       cy="27.961798"
       rx="20.923323"
       ry="29.998476"
       style="stroke-width:0.31828198"
       transform="matrix(-0.89123477,-0.45354227,-0.45443894,0.89077789,0,0)" />
    <ellipse
       style="fill:#ffffff;stroke-width:0.46766108"
       id="path3721-6"
       cx="-148.60472"
       cy="35.176899"
       rx="14.1005"
       ry="17.726372"
       transform="matrix(-0.89123477,-0.45354227,-0.45443894,0.89077789,0,0)" />
    <ellipse
       style="fill:#000000;stroke-width:0.31828192"
       id="path3743"
       cx="93.927094"
       cy="150.98856"
       rx="39.582504"
       ry="16.813013" />
    <ellipse
       style="fill:#ffffff;stroke-width:0.31828192"
       id="path3745"
       cx="94.38205"
       cy="151.44296"
       rx="19.108797"
       ry="8.1793032" />
    <ellipse
       style="fill:#ffffff;stroke-width:0.31828192"
       id="path3749"
       cx="177.6418"
       cy="210.5157"
       rx="2.2748566"
       ry="1.8176231" />
    <ellipse
       style="fill:#ff0000;stroke-width:0.31828192"
       id="path3751"
       cx="71.178513"
       cy="106.00238"
       rx="3.1847994"
       ry="3.6352463" />
    <ellipse
       style="fill:#ff0000;stroke-width:0.31828192"
       id="path3751-7"
       cx="112.58091"
       cy="106.9112"
       rx="3.1847994"
       ry="3.6352463" />
    <rect
       style="fill:#000000;stroke-width:0.27475533"
       id="rect3768"
       width="35.713585"
       height="8.9727612"
       x="47.820694"
       y="92.732727"
       transform="matrix(0.95179269,-0.30674203,0.62733421,0.77875015,0,0)" />
    <rect
       style="fill:#000000;stroke-width:0.27475533"
       id="rect3768-5"
       width="35.713581"
       height="8.9727612"
       x="-94.867233"
       y="24.275724"
       transform="matrix(-0.95179269,-0.30674203,-0.62733421,0.77875014,0,0)" />
    <ellipse
       style="fill:#ff8080;stroke-width:0.25935256"
       id="path3741-3"
       cx="242.16376"
       cy="135.63881"
       rx="59.601246"
       ry="46.349388" />
    <ellipse
       id="path3713-6"
       cx="149.93184"
       cy="168.77579"
       rx="20.923323"
       ry="29.998478"
       style="stroke-width:0.31828198"
       transform="matrix(0.89123477,-0.45354226,0.45443894,0.89077789,0,0)" />
    <ellipse
       style="fill:#ffffff;stroke-width:0.46766108"
       id="path3721-7"
       cx="150.88341"
       cy="176.40359"
       rx="14.1005"
       ry="17.726374"
       transform="matrix(0.89123477,-0.45354226,0.45443894,0.89077789,0,0)" />
    <ellipse
       id="path3713-3-5"
       cx="-282.70694"
       cy="-42.845486"
       rx="20.923323"
       ry="29.998478"
       style="stroke-width:0.31828198"
       transform="matrix(-0.89123477,-0.45354226,-0.45443894,0.89077789,0,0)" />
    <ellipse
       style="fill:#ffffff;stroke-width:0.46766108"
       id="path3721-6-3"
       cx="-282.56592"
       cy="-35.630383"
       rx="14.1005"
       ry="17.726374"
       transform="matrix(-0.89123477,-0.45354226,-0.45443894,0.89077789,0,0)" />
    <ellipse
       style="fill:#000000;stroke-width:0.31828192"
       id="path3743-5"
       cx="243.98364"
       cy="152.45181"
       rx="39.582504"
       ry="16.813013" />
    <ellipse
       style="fill:#ffffff;stroke-width:0.31828192"
       id="path3745-6"
       cx="244.4386"
       cy="152.90622"
       rx="19.108799"
       ry="8.1793032" />
    <ellipse
       style="fill:#ffffff;stroke-width:0.31828192"
       id="path3749-2"
       cx="327.69836"
       cy="211.97899"
       rx="2.2748566"
       ry="1.8176231" />
    <ellipse
       style="fill:#ff0000;stroke-width:0.31828192"
       id="path3751-9"
       cx="218.96721"
       cy="96.882301"
       rx="3.1847994"
       ry="3.6352463" />
    <ellipse
       style="fill:#ff0000;stroke-width:0.31828192"
       id="path3751-7-1"
       cx="264.14938"
       cy="104.59471"
       rx="3.1847994"
       ry="3.6352463" />
    <rect
       style="fill:#000000;stroke-width:0.27475533"
       id="rect3768-2"
       width="35.713585"
       height="8.9727621"
       x="176.06357"
       y="137.35953"
       transform="matrix(0.95179269,-0.30674204,0.6273342,0.77875016,0,0)" />
    <rect
       style="fill:#000000;stroke-width:0.27475533"
       id="rect3768-5-7"
       width="35.713581"
       height="8.9727602"
       x="-215.04027"
       y="-33.799694"
       transform="matrix(-0.95179269,-0.30674204,-0.62733421,0.77875015,0,0)" />
    <ellipse
       style="fill:#ff8080;stroke-width:0.25935256"
       id="path3741-3-0"
       cx="390.07144"
       cy="141.33766"
       rx="59.601246"
       ry="46.349388" />
    <ellipse
       id="path3713-6-9"
       cx="280.51022"
       cy="233.17133"
       rx="20.923323"
       ry="29.998478"
       style="stroke-width:0.31828198"
       transform="matrix(0.89123477,-0.45354226,0.45443894,0.89077789,0,0)" />
    <ellipse
       style="fill:#ffffff;stroke-width:0.46766108"
       id="path3721-7-3"
       cx="281.46179"
       cy="240.79913"
       rx="14.1005"
       ry="17.726374"
       transform="matrix(0.89123477,-0.45354226,0.45443894,0.89077789,0,0)" />
    <ellipse
       id="path3713-3-5-6"
       cx="-413.61435"
       cy="-111.5862"
       rx="20.923323"
       ry="29.998478"
       style="stroke-width:0.31828198"
       transform="matrix(-0.89123477,-0.45354226,-0.45443894,0.89077789,0,0)" />
    <ellipse
       style="fill:#ffffff;stroke-width:0.46766108"
       id="path3721-6-3-0"
       cx="-413.47333"
       cy="-104.3711"
       rx="14.1005"
       ry="17.726374"
       transform="matrix(-0.89123477,-0.45354226,-0.45443894,0.89077789,0,0)" />
    <ellipse
       style="fill:#000000;stroke-width:0.31828192"
       id="path3743-5-6"
       cx="391.89133"
       cy="161.93042"
       rx="39.582504"
       ry="16.813013" />
    <ellipse
       style="fill:#ffffff;stroke-width:0.31828192"
       id="path3745-6-2"
       cx="392.34628"
       cy="162.38483"
       rx="19.108801"
       ry="8.1793032" />
    <ellipse
       style="fill:#ff0000;stroke-width:0.31828192"
       id="path3751-9-6"
       cx="364.60703"
       cy="95.021622"
       rx="3.1847994"
       ry="3.6352463" />
    <ellipse
       style="fill:#ff0000;stroke-width:0.31828192"
       id="path3751-7-1-1"
       cx="412.05707"
       cy="102.73402"
       rx="3.1847994"
       ry="3.6352463" />
    <rect
       style="fill:#000000;stroke-width:0.27475533"
       id="rect3768-2-8"
       width="35.713585"
       height="8.9727631"
       x="301.06934"
       y="182.2673"
       transform="matrix(0.95179269,-0.30674204,0.6273342,0.77875016,0,0)" />
    <rect
       style="fill:#000000;stroke-width:0.27475533"
       id="rect3768-5-7-7"
       width="35.713581"
       height="8.9727592"
       x="-335.00583"
       y="-86.354431"
       transform="matrix(-0.95179269,-0.30674204,-0.62733421,0.77875015,0,0)" />
    <ellipse
       style="fill:#ffffff;stroke-width:0.31828192"
       id="path3749-2-9"
       cx="468.561"
       cy="207.61766"
       rx="2.2748566"
       ry="1.8176231" />
    <ellipse
       style="fill:#ff8080;stroke-width:0.25935256"
       id="path3741-3-0-2"
       cx="530.93408"
       cy="136.97632"
       rx="59.601246"
       ry="46.349388" />
    <ellipse
       id="path3713-6-9-0"
       cx="411.39124"
       cy="288.12454"
       rx="20.923323"
       ry="29.998478"
       style="stroke-width:0.31828198"
       transform="matrix(0.89123477,-0.45354226,0.45443894,0.89077789,0,0)" />
    <ellipse
       style="fill:#ffffff;stroke-width:0.46766108"
       id="path3721-7-3-2"
       cx="412.3428"
       cy="295.75232"
       rx="14.1005"
       ry="17.726374"
       transform="matrix(0.89123477,-0.45354226,0.45443894,0.89077789,0,0)" />
    <ellipse
       id="path3713-3-5-6-3"
       cx="-535.36469"
       cy="-186.10965"
       rx="20.923323"
       ry="29.998478"
       style="stroke-width:0.31828198"
       transform="matrix(-0.89123477,-0.45354226,-0.45443894,0.89077789,0,0)" />
    <ellipse
       style="fill:#ffffff;stroke-width:0.46766108"
       id="path3721-6-3-0-7"
       cx="-535.22369"
       cy="-178.89456"
       rx="14.1005"
       ry="17.726374"
       transform="matrix(-0.89123477,-0.45354226,-0.45443894,0.89077789,0,0)" />
    <ellipse
       style="fill:#000000;stroke-width:0.31828192"
       id="path3743-5-6-5"
       cx="537.28967"
       cy="162.1048"
       rx="39.582504"
       ry="16.813013" />
    <ellipse
       style="fill:#ffffff;stroke-width:0.31828192"
       id="path3745-6-2-9"
       cx="537.74463"
       cy="162.55922"
       rx="19.108801"
       ry="8.1793032" />
    <ellipse
       style="fill:#ff0000;stroke-width:0.31828192"
       id="path3751-9-6-2"
       cx="506.22562"
       cy="84.612656"
       rx="3.1847994"
       ry="3.6352463" />
    <ellipse
       style="fill:#ff0000;stroke-width:0.31828192"
       id="path3751-7-1-1-2"
       cx="554.43158"
       cy="91.569099"
       rx="3.1847994"
       ry="3.6352463" />
    <rect
       style="fill:#000000;stroke-width:0.27475533"
       id="rect3768-2-8-8"
       width="35.713585"
       height="8.9727631"
       x="427.20364"
       y="216.6427"
       transform="matrix(0.95179269,-0.30674204,0.6273342,0.77875016,0,0)" />
    <rect
       style="fill:#000000;stroke-width:0.27475533"
       id="rect3768-5-7-7-9"
       width="35.713581"
       height="8.9727592"
       x="-444.36716"
       y="-143.76775"
       transform="matrix(-0.95179269,-0.30674204,-0.62733421,0.77875015,0,0)" />
    <ellipse
       style="fill:#ffffff;stroke-width:0.31828192"
       id="path3749-2-9-7"
       cx="26.328836"
       cy="394.71588"
       rx="2.2748566"
       ry="1.8176231" />
    <ellipse
       style="fill:#ff8080;stroke-width:0.25935256"
       id="path3741-3-0-2-3"
       cx="88.701942"
       cy="324.07455"
       rx="59.601246"
       ry="46.349388" />
    <ellipse
       id="path3713-6-9-0-6"
       cx="-66.465324"
       cy="243.82918"
       rx="20.923323"
       ry="29.998478"
       style="stroke-width:0.31828198"
       transform="matrix(0.89123477,-0.45354226,0.45443894,0.89077789,0,0)" />
    <ellipse
       style="fill:#ffffff;stroke-width:0.46766108"
       id="path3721-7-3-2-1"
       cx="-65.513756"
       cy="251.45699"
       rx="14.1005"
       ry="17.726374"
       transform="matrix(0.89123477,-0.45354226,0.45443894,0.89077789,0,0)" />
    <ellipse
       id="path3713-3-5-6-3-2"
       cx="-224.72726"
       cy="176.15096"
       rx="20.923323"
       ry="29.998478"
       style="stroke-width:0.31828198"
       transform="matrix(-0.89123477,-0.45354226,-0.45443894,0.89077789,0,0)" />
    <ellipse
       style="fill:#ffffff;stroke-width:0.46766108"
       id="path3721-6-3-0-7-9"
       cx="-224.58627"
       cy="183.36606"
       rx="14.1005"
       ry="17.726374"
       transform="matrix(-0.89123477,-0.45354226,-0.45443894,0.89077789,0,0)" />
    <ellipse
       style="fill:#000000;stroke-width:0.31828192"
       id="path3743-5-6-5-3"
       cx="107.90872"
       cy="356.00659"
       rx="39.582504"
       ry="16.813013" />
    <ellipse
       style="fill:#ffffff;stroke-width:0.31828192"
       id="path3745-6-2-9-1"
       cx="108.36368"
       cy="356.461"
       rx="19.108801"
       ry="8.1793032" />
    <ellipse
       style="fill:#ff0000;stroke-width:0.31828192"
       id="path3751-9-6-2-9"
       cx="60.213688"
       cy="261.88348"
       rx="3.1847994"
       ry="3.6352463" />
    <ellipse
       style="fill:#ff0000;stroke-width:0.31828192"
       id="path3751-7-1-1-2-4"
       cx="112.95539"
       cy="273.37564"
       rx="3.1847994"
       ry="3.6352463" />
    <rect
       style="fill:#000000;stroke-width:0.27475533"
       id="rect3768-2-8-8-7"
       width="35.713585"
       height="8.9727631"
       x="-63.070343"
       y="257.95874"
       transform="matrix(0.95179269,-0.30674204,0.6273342,0.77875016,0,0)" />
    <rect
       style="fill:#000000;stroke-width:0.27475533"
       id="rect3768-5-7-7-9-8"
       width="35.713581"
       height="8.9727592"
       x="-197.53781"
       y="187.88603"
       transform="matrix(-0.95179269,-0.30674204,-0.62733421,0.77875015,0,0)" />
  </g>
</svg>
